<?xml version="1.0" encoding="UTF-8"?>
<svg id="_图层_2" data-name="图层 2" xmlns="http://www.w3.org/2000/svg" viewBox="0 0 756.14 756.14">
  <defs>
    <style>
      .cls-1 {
        fill: #fdead6;
      }

      .cls-2 {
        fill: #f6b267;
      }

      .cls-3 {
        fill: #fbdcb6;
      }

      .cls-4 {
        fill: #d75329;
      }
    </style>
  </defs>
  <g id="_图层_2-2" data-name="图层 2">
    <path class="cls-2" d="M470.05,756.14c100.14,0,150.21,0,188.46-19.49,33.65-17.14,61-44.5,78.14-78.14,19.49-38.25,19.49-88.32,19.49-188.47v-183.95c0-100.14,0-150.21-19.49-188.46-17.14-33.65-44.5-61-78.14-78.14C620.26,0,570.19,0,470.05,0h-183.95c-100.14,0-150.21,0-188.46,19.49C63.99,36.63,36.63,63.99,19.49,97.63,0,135.88,0,185.95,0,286.1v183.95c0,100.14,0,150.21,19.49,188.47,17.14,33.64,44.5,61,78.14,78.14,38.25,19.49,88.32,19.49,188.46,19.49h183.95Z"/>
    <g>
      <path class="cls-1" d="M117.98,188.83v377.84c37.87-5.28,85.15-8.61,139.22-4.94,46.71,3.17,87.45,10.81,120.88,19.31V200.27c-34.95-8.68-78.94-16.56-130.05-18.76-50.6-2.18-94.71,1.78-130.05,7.32Z"/>
      <path class="cls-3" d="M638.17,188.83v377.84c-37.87-5.28-85.15-8.61-139.22-4.94-46.71,3.17-87.45,10.81-120.88,19.31V200.27c34.95-8.68,78.94-16.56,130.05-18.76,50.6-2.18,94.71,1.78,130.05,7.32Z"/>
      <path class="cls-3" d="M154.31,147.55v378.57c32.44-.84,77.42,1.57,128.62,15.83,39.12,10.89,71.04,25.68,95.13,39.09V200.27c-8.94-5.74-18.5-11.28-28.71-16.48-71.64-36.47-143.54-40.07-195.05-36.25Z"/>
      <path class="cls-1" d="M601.83,147.55v378.57c-32.44-.84-77.42,1.57-128.62,15.83-39.12,10.89-71.04,25.68-95.13,39.09V200.27c8.94-5.74,18.5-11.28,28.71-16.48,71.64-36.47,143.54-40.07,195.05-36.25Z"/>
      <path class="cls-4" d="M480.14,368.54l-40.69,31-6.79,29.3-51.31-8.26,2.55,49.43h-11.68l2.55-49.43-51.31,8.26-6.79-29.3-40.69-31c16.75-3.12,14.89-8.02,10.17-24.47l-6.05-19.85,19.37,5.32c16.96,4.62,17.88,4.2,18.17-10.9l20.59,20.83c8.41,8.87,11.68,7.3,9.45-4.84l-9.45-49.89,9.93,4.84c10.51,4.95,10.1,3.41,14.78-4.84l15.12-27.37,15.12,27.37c4.68,8.26,4.27,9.8,14.78,4.84l9.93-4.84-9.45,49.89c-2.23,12.15,1.04,13.72,9.45,4.84l20.59-20.83c.29,15.1,1.21,15.52,18.17,10.9l19.37-5.32-6.05,19.85c-4.71,16.45-6.57,21.35,10.17,24.47Z"/>
    </g>
  </g>
</svg>